<svg width="1400" height="420" viewBox="0 0 1400 420" fill="none" xmlns="http://www.w3.org/2000/svg">
  <defs>
    <linearGradient id="g" x1="0" y1="0" x2="1400" y2="420"><stop stop-color="#102A68"/><stop offset=".5" stop-color="#061022"/><stop offset="1" stop-color="#063B48"/></linearGradient>
    <linearGradient id="t" x1="160" y1="120" x2="1180" y2="280"><stop stop-color="#fff"/><stop offset=".55" stop-color="#9EC1FF"/><stop offset="1" stop-color="#4CF4DE"/></linearGradient>
    <filter id="blur"><feGaussianBlur stdDeviation="42"/></filter>
  </defs>
  <rect width="1400" height="420" rx="34" fill="url(#g)"/>
  <circle cx="220" cy="110" r="110" fill="#2F7CFF" opacity=".35" filter="url(#blur)"/>
  <circle cx="1190" cy="310" r="130" fill="#32F2DC" opacity=".24" filter="url(#blur)"/>
  <path d="M80 315C240 240 340 250 470 295C620 346 740 145 900 190C1030 226 1090 294 1320 110" stroke="#6EA2FF" stroke-opacity=".28" stroke-width="2"/>
  <g opacity=".22">
    <path d="M0 70H1400M0 140H1400M0 210H1400M0 280H1400M0 350H1400" stroke="white"/>
    <path d="M100 0V420M200 0V420M300 0V420M400 0V420M500 0V420M600 0V420M700 0V420M800 0V420M900 0V420M1000 0V420M1100 0V420M1200 0V420M1300 0V420" stroke="white"/>
  </g>
  <text x="92" y="112" fill="#32F2DC" font-family="Inter, Arial" font-size="18" font-weight="800" letter-spacing="8">PUBLIC RESEARCH EDITION</text>
  <text x="90" y="196" fill="url(#t)" font-family="Inter, Arial" font-size="62" font-weight="900">XAIPT-GUARD™</text>
  <text x="92" y="254" fill="#EAF3FF" font-family="Inter, Arial" font-size="28" font-weight="700">Human-Centered Execution Governance</text>
  <text x="92" y="304" fill="#9DB3D4" font-family="Inter, Arial" font-size="22">Friction before consequence. Authority before irreversible execution.</text>
  <g transform="translate(1070 88)">
    <circle cx="120" cy="120" r="92" stroke="#5F9BFF" stroke-opacity=".55" stroke-width="2"/>
    <circle cx="120" cy="120" r="56" fill="#09182F" stroke="#32F2DC" stroke-opacity=".65"/>
    <text x="80" y="128" fill="#fff" font-family="Inter, Arial" font-size="24" font-weight="900">HOLD</text>
    <circle cx="34" cy="120" r="18" fill="#2F7CFF"/><circle cx="206" cy="120" r="18" fill="#32F2DC"/>
    <circle cx="120" cy="34" r="18" fill="#FFB65B"/><circle cx="120" cy="206" r="18" fill="#FF5470"/>
  </g>
</svg>
